<svg xmlns="http://www.w3.org/2000/svg" width="410" height="390" viewBox="0 0 410 390" version="1.1">
	<path fill-opacity="0.875" d="M 196.500 0.618 C 173.809 4.005, 160.068 8.045, 148.753 14.659 C 138.983 20.369, 133.999 25.970, 130.901 34.720 L 128.500 41.500 128.500 88.706 L 128.500 135.913 125.022 138.481 C 120.899 141.526, 119.084 144.488, 119.035 148.250 C 118.994 151.459, 118.977 151.454, 123.654 149.500 C 125.629 148.675, 127.527 148, 127.872 148 C 128.217 148, 128.441 190.413, 128.369 242.250 C 128.249 328.981, 128.384 337.378, 130.055 347.500 C 131.053 353.550, 132.154 360.773, 132.502 363.550 C 133.298 369.921, 136.549 375.780, 140.927 378.730 C 159.375 391.162, 242.196 392.235, 266.801 380.361 C 275.160 376.327, 276.572 373.364, 279.888 352.899 L 282.706 335.500 282.471 241.750 C 282.341 190.188, 282.577 148, 282.996 148 C 283.414 148, 285.329 148.657, 287.251 149.460 C 291.213 151.116, 292 150.730, 292 147.134 C 292 145.381, 290.429 143.127, 286.892 139.806 L 281.783 135.010 282.489 92.255 C 283.250 46.116, 282.926 41.672, 277.959 30.126 C 272.891 18.345, 255.532 8.543, 230.940 3.576 C 218.786 1.121, 202.500 -0.278, 196.500 0.618 M 151.778 17.766 C 142.971 22.658, 138.341 27.070, 135.411 33.364 C 132.993 38.558, 132.005 49, 133.932 49 C 134.444 49, 137.672 45.110, 141.104 40.356 C 144.536 35.601, 150.417 27.953, 154.172 23.359 C 157.928 18.765, 161 14.780, 161 14.503 C 161 13.250, 157.986 14.317, 151.778 17.766 M 250 14.579 C 250 14.897, 252.627 18.384, 255.837 22.329 C 259.048 26.273, 264.920 33.888, 268.887 39.250 C 272.853 44.613, 276.588 49, 277.186 49 C 278.970 49, 277.511 36.923, 275.175 32.342 C 272.570 27.236, 265.910 21.296, 258.154 17.163 C 252.450 14.123, 250 13.346, 250 14.579 M 189.472 95.042 C 175.951 96.810, 159.037 102.945, 147.980 110.091 C 142.921 113.361, 142.045 114.345, 142.502 116.242 C 142.801 117.484, 145.243 129.896, 147.930 143.823 C 150.616 157.751, 152.968 169.292, 153.157 169.470 C 153.346 169.648, 156.787 168.954, 160.804 167.928 C 186.500 161.366, 225.057 161.385, 250.151 167.973 C 254.163 169.026, 257.584 169.749, 257.753 169.580 C 257.923 169.410, 260.469 156.948, 263.412 141.886 L 268.762 114.500 266.131 112.252 C 258.341 105.593, 235.372 96.835, 221.026 95.053 C 211.496 93.869, 198.478 93.864, 189.472 95.042 M 138 165.343 C 138 175.432, 138.289 189.064, 138.643 195.637 L 139.285 207.589 145.304 210.923 L 151.323 214.258 150.650 197.926 C 150.157 185.965, 149.186 177.676, 147.023 166.953 C 143.433 149.157, 142.676 147, 140.025 147 C 138.065 147, 138 147.592, 138 165.343 M 266.167 155.750 C 262.206 172.968, 260.969 181.735, 260.240 197.750 C 259.833 206.688, 259.725 213.999, 260 213.996 C 260.275 213.994, 262.975 212.505, 266 210.688 L 271.500 207.384 272.114 195.442 C 272.452 188.874, 272.790 175.287, 272.864 165.250 L 273 147 270.590 147 C 268.379 147, 268.012 147.727, 266.167 155.750 M 139.662 253.215 C 139.967 269.872, 140.504 286.646, 140.858 290.491 L 141.500 297.483 146.500 285.991 L 151.500 274.500 151.500 250.073 L 151.500 225.646 149 224.979 C 147.625 224.612, 144.837 224.001, 142.805 223.621 L 139.110 222.930 139.662 253.215 M 264.500 224.353 L 259.500 225.513 259.232 249.294 L 258.964 273.075 264.232 285.288 L 269.500 297.500 270.146 286.500 C 271.469 263.973, 271.768 222.996, 270.608 223.096 C 269.999 223.149, 267.250 223.714, 264.500 224.353 M 148.657 306.750 C 148.331 308.262, 146.925 314.789, 145.532 321.254 C 142.973 333.134, 142.299 343.345, 143.908 345.885 C 145.106 347.778, 146.349 345.325, 148.955 335.920 C 150.503 330.334, 151 325.558, 151 316.270 C 151 304.708, 149.986 300.586, 148.657 306.750 M 259.987 316.750 C 259.976 327.738, 260.344 330.709, 262.645 338.250 C 264.114 343.063, 265.667 347, 266.096 347 C 267.713 347, 268.272 337.305, 267.076 330 C 265.131 318.114, 261.741 304, 260.832 304 C 260.374 304, 259.994 309.738, 259.987 316.750 M 162.990 354.512 C 162.440 355.175, 161.466 358.325, 160.826 361.513 C 159.731 366.965, 159.789 367.411, 161.808 369.046 C 166.058 372.487, 180.753 374.231, 205.500 374.231 C 231.074 374.231, 245.559 372.441, 249.165 368.835 C 251.247 366.753, 251.005 362.594, 248.435 356.275 C 247.140 353.093, 247.080 353.068, 243.812 354.417 C 238.899 356.445, 230.659 357.951, 219.992 358.771 C 211.168 359.449, 210.478 359.658, 210.180 361.750 C 209.904 363.695, 209.263 364, 205.450 364 C 201.578 364, 200.961 363.694, 200.411 361.500 C 199.850 359.266, 199.270 359, 194.964 359 C 187.801 359, 175.210 357.078, 169.245 355.073 C 165.187 353.709, 163.762 353.581, 162.990 354.512" stroke="none" fill="black" fill-rule="evenodd"/>
	<path fill-opacity="0.122" d="M 193.506 1.149 C 178.146 3.116, 164.733 6.836, 154.158 12.060 C 141.232 18.447, 135.161 24.060, 132.051 32.500 C 127.939 43.659, 127.713 47.391, 128.391 92.723 L 129.038 135.947 125.162 138.512 C 121.275 141.083, 119 144.543, 119 147.880 C 119 150.646, 119.887 150.945, 123.549 149.415 C 125.412 148.637, 127.288 148, 127.718 148 C 128.148 148, 128.464 190.413, 128.420 242.250 L 128.339 336.500 131.018 353.222 C 134.191 373.029, 135.779 376.298, 144.199 380.361 C 168.738 392.204, 249.411 391.234, 269.700 378.852 C 275.354 375.401, 276.870 371.528, 279.900 352.800 L 282.699 335.500 282.469 241.750 C 282.342 190.188, 282.580 148, 282.997 148 C 283.414 148, 285.362 148.671, 287.324 149.491 C 291.470 151.223, 292.462 150.381, 291.490 145.955 C 291.085 144.111, 289.101 141.526, 286.327 139.230 L 281.821 135.500 282.506 92.500 C 283.088 55.997, 282.962 48.422, 281.674 42.367 C 278.220 26.130, 273.515 20.364, 256.952 12.073 C 246.625 6.903, 236.695 4.160, 218.872 1.554 C 207.263 -0.143, 204.001 -0.195, 193.506 1.149 M 151.724 17.766 C 138.735 24.925, 133 33.040, 133 44.261 C 133 50.644, 134.156 50.200, 140.392 41.421 C 143.096 37.614, 148.839 30.097, 153.154 24.717 C 157.469 19.336, 161 14.723, 161 14.467 C 161 13.254, 157.924 14.349, 151.724 17.766 M 250 14.579 C 250 14.897, 252.627 18.384, 255.837 22.329 C 259.048 26.273, 264.920 33.888, 268.887 39.250 C 272.853 44.613, 276.526 49, 277.049 49 C 277.572 49, 277.996 46.638, 277.990 43.750 C 277.971 33.231, 270.532 23.347, 257.779 16.895 C 252.184 14.064, 250 13.414, 250 14.579 M 188.500 95.050 C 174.912 96.866, 152.594 105.632, 144.796 112.217 L 142.092 114.500 147.396 141.767 C 150.314 156.764, 152.893 169.226, 153.128 169.461 C 153.363 169.696, 156.918 169.004, 161.027 167.924 C 186.352 161.268, 230.868 161.611, 252.315 168.628 C 254.963 169.495, 257.341 169.992, 257.600 169.733 C 257.859 169.474, 260.498 156.941, 263.465 141.881 L 268.860 114.500 266.180 112.252 C 259.822 106.917, 244.720 100.237, 231.500 96.910 C 222.163 94.561, 199.498 93.581, 188.500 95.050 M 138.005 166.250 C 138.007 176.838, 138.296 190.485, 138.647 196.577 L 139.286 207.655 144.384 210.577 C 147.189 212.185, 149.897 213.674, 150.402 213.887 C 150.955 214.120, 151.053 207.729, 150.648 197.845 C 150.119 184.932, 149.230 177.787, 146.497 164.458 C 144.584 155.131, 143.014 147.387, 143.009 147.250 C 143.004 147.113, 141.875 147, 140.500 147 L 138 147 138.005 166.250 M 266.167 155.750 C 262.161 173.164, 260.886 182.180, 260.199 197.948 C 259.815 206.777, 259.668 214.001, 259.873 214 C 260.078 214, 262.823 212.583, 265.973 210.852 L 271.699 207.704 272.346 192.102 C 272.702 183.521, 272.995 169.863, 272.997 161.750 L 273 147 270.590 147 C 268.379 147, 268.012 147.727, 266.167 155.750 M 139.542 249.250 C 139.828 263.688, 140.323 280.642, 140.641 286.926 L 141.219 298.353 146.628 285.697 L 152.036 273.042 151.768 249.336 L 151.500 225.630 146.500 224.334 C 143.750 223.622, 140.942 223.030, 140.260 223.019 C 139.292 223.004, 139.135 228.747, 139.542 249.250 M 263.750 224.305 L 259 225.335 259 249.284 L 259 273.234 263.644 284.367 C 266.198 290.490, 268.623 295.878, 269.034 296.340 C 269.812 297.216, 270.633 278.976, 271.401 243.750 C 271.910 220.416, 272.679 222.369, 263.750 224.305 M 260 316.053 C 260 329.345, 261.177 336.230, 265.034 345.500 L 266.282 348.500 267.218 344.500 C 267.733 342.300, 267.945 337.800, 267.688 334.500 C 267.133 327.368, 262.217 304.906, 260.913 303.550 C 260.360 302.975, 260 307.911, 260 316.053 M 147.538 311.135 C 143.092 330.679, 141.981 341.669, 143.960 346.500 C 144.715 348.342, 144.872 348.266, 145.943 345.544 C 149.615 336.216, 151 328.201, 151 316.270 C 151 309.469, 150.590 304, 150.080 304 C 149.574 304, 148.430 307.211, 147.538 311.135 M 162.990 354.512 C 162.440 355.175, 161.466 358.325, 160.826 361.513 C 159.731 366.965, 159.789 367.411, 161.808 369.046 C 166.076 372.502, 180.757 374.251, 205.500 374.251 C 230.098 374.251, 244.922 372.503, 249.113 369.109 C 251.028 367.559, 251.101 366.999, 250.099 361.580 C 248.652 353.749, 247.780 352.781, 243.691 354.468 C 238.894 356.447, 230.574 357.958, 219.992 358.771 C 211.168 359.449, 210.478 359.658, 210.180 361.750 C 209.905 363.687, 209.260 364, 205.539 364 C 201.763 364, 201.138 363.684, 200.589 361.500 C 200.027 359.258, 199.455 359, 195.053 359 C 187.810 359, 175.239 357.087, 169.245 355.073 C 165.187 353.709, 163.762 353.581, 162.990 354.512" stroke="none" fill="black" fill-rule="evenodd"/>
	<path fill-opacity="1.000" d="M 191.500 1.500 C 173.461 4.368, 163.938 7.081, 153.836 12.230 C 137.396 20.610, 133.188 25.677, 129.381 41.682 C 127.960 47.655, 127.837 53.870, 128.390 91.847 L 129.020 135.194 124.010 139.898 C 120.554 143.143, 119 145.387, 119 147.134 C 119 150.685, 119.687 151.029, 123.549 149.415 C 125.412 148.637, 127.288 148, 127.718 148 C 128.148 148, 128.444 190.188, 128.376 241.750 L 128.252 335.500 130.672 351 C 132.004 359.525, 133.537 367.903, 134.080 369.617 C 135.839 375.170, 141.563 379.775, 150.032 382.450 C 181.379 392.353, 253.040 390.152, 269.252 378.790 C 275.697 374.272, 276.901 371.339, 279.892 352.850 L 282.700 335.500 282.463 241.750 C 282.321 185.290, 282.593 148, 283.146 148 C 283.651 148, 285.615 148.648, 287.510 149.440 C 291.491 151.103, 292.442 150.288, 291.504 146.018 C 290.871 143.137, 284.978 137, 282.844 137 C 282.069 137, 281.962 124.498, 282.471 93.250 C 283.252 45.271, 282.924 41.056, 277.513 29.619 C 274.116 22.438, 269.061 18.196, 256.410 11.909 C 247.924 7.691, 243.780 6.346, 231.851 3.935 C 213.842 0.296, 203.137 -0.351, 191.500 1.500 M 151.080 17.750 C 142.192 22.979, 136.659 28.619, 134.660 34.486 C 132.862 39.761, 132.411 49, 133.951 49 C 134.474 49, 138.147 44.612, 142.113 39.250 C 146.080 33.887, 151.952 26.273, 155.163 22.329 C 158.373 18.384, 161 14.897, 161 14.579 C 161 13.033, 156.834 14.365, 151.080 17.750 M 250 14.573 C 250 14.888, 253.745 19.951, 258.321 25.823 C 262.898 31.695, 268.635 39.165, 271.071 42.422 C 276.879 50.187, 278 50.485, 278 44.261 C 278 37.122, 275.440 30.676, 270.738 25.974 C 264.314 19.549, 250 11.680, 250 14.573 M 186 95.524 C 172.598 97.621, 152.181 105.761, 145.161 111.807 L 142.033 114.500 147.357 141.757 C 150.284 156.748, 152.896 169.230, 153.161 169.494 C 153.426 169.759, 157.885 168.903, 163.071 167.592 C 188.344 161.204, 228.024 161.632, 251.818 168.550 C 254.786 169.412, 257.412 169.921, 257.654 169.680 C 257.895 169.439, 260.503 156.924, 263.449 141.871 C 268.279 117.194, 268.657 114.332, 267.284 112.790 C 265.161 110.404, 249.983 102.752, 241.032 99.554 C 226.357 94.311, 204.147 92.684, 186 95.524 M 138.005 166.250 C 138.007 176.838, 138.297 190.496, 138.649 196.603 L 139.289 207.705 144.551 210.853 C 147.445 212.584, 150.080 214, 150.406 214 C 151.351 214, 151.094 197.505, 149.963 185.579 C 149.393 179.572, 147.593 168.663, 145.964 161.336 C 144.334 154.009, 143 147.786, 143 147.507 C 143 147.228, 141.875 147, 140.500 147 L 138 147 138.005 166.250 M 267.598 148.750 C 267.302 149.713, 265.684 157.359, 264.002 165.742 C 261.760 176.918, 260.752 185.388, 260.222 197.492 C 259.825 206.572, 259.802 214.001, 260.170 214 C 260.539 214, 263.285 212.551, 266.273 210.781 L 271.705 207.562 272.349 192.031 C 272.703 183.489, 272.995 169.863, 272.997 161.750 L 273 147 270.567 147 C 269.122 147, 267.917 147.710, 267.598 148.750 M 139.670 253.136 C 139.980 269.836, 140.518 286.833, 140.867 290.908 L 141.500 298.315 146.750 285.736 L 152 273.157 152 249.209 L 152 225.262 148.750 224.695 C 146.963 224.384, 144.061 223.823, 142.303 223.450 L 139.106 222.771 139.670 253.136 M 263.703 224.235 L 258.905 225.234 259.203 250.367 L 259.500 275.500 264.500 286.998 L 269.500 298.496 270.155 286.498 C 270.515 279.899, 271.017 262.913, 271.269 248.750 C 271.784 219.835, 272.572 222.389, 263.703 224.235 M 148.657 305.750 C 148.331 307.262, 146.925 313.789, 145.532 320.254 C 143.012 331.951, 142.252 344.271, 143.890 346.857 C 145.004 348.614, 145.283 348.078, 148.389 338.198 C 150.663 330.970, 151 328.158, 151 316.448 C 151 303.866, 150.024 299.409, 148.657 305.750 M 260 315.982 C 260 329.617, 262.259 342.237, 265.492 346.658 C 266.643 348.232, 266.887 347.750, 267.525 342.645 C 267.924 339.453, 267.970 334.801, 267.629 332.307 C 266.585 324.692, 261.883 304.559, 260.913 303.550 C 260.360 302.975, 260 307.883, 260 315.982 M 163.088 354.394 C 161.658 356.117, 159.691 365.752, 160.394 367.585 C 162.127 372.102, 180.774 374.718, 209 374.406 C 237.185 374.095, 251.049 371.393, 250.976 366.227 C 250.934 363.276, 248.946 355.640, 247.888 354.365 C 247.103 353.419, 246.139 353.462, 243.509 354.561 C 239.072 356.415, 222.988 358.991, 215.820 358.996 C 210.692 359, 210.108 359.219, 209.820 361.250 C 209.556 363.108, 208.780 363.553, 205.371 363.802 C 201.667 364.072, 201.177 363.841, 200.602 361.552 C 200.018 359.224, 199.503 359, 194.731 358.996 C 187.940 358.991, 171.806 356.364, 167.491 354.561 C 164.816 353.443, 163.906 353.408, 163.088 354.394" stroke="none" fill="black" fill-rule="evenodd"/>
</svg>
